<?xml version="1.0" standalone="no"?>
<!DOCTYPE svg PUBLIC "-//W3C//DTD SVG 20010904//EN"
 "http://www.w3.org/TR/2001/REC-SVG-20010904/DTD/svg10.dtd">
<svg version="1.0" xmlns="http://www.w3.org/2000/svg"
 width="1498.000000pt" height="683.000000pt" viewBox="0 0 1498.000000 683.000000"
 preserveAspectRatio="xMidYMid meet">

<g transform="translate(0.000000,683.000000) scale(0.100000,-0.100000)"
fill="#000000" stroke="none">
<path d="M2830 6080 c-145 -8 -347 -34 -440 -55 -209 -48 -346 -89 -402 -120
-14 -8 -32 -15 -40 -15 -7 0 -42 -16 -78 -35 -36 -19 -80 -41 -98 -49 -73 -34
-274 -178 -356 -255 -103 -98 -212 -247 -265 -366 -18 -38 -37 -78 -42 -88
-15 -28 -50 -163 -60 -232 -11 -76 -11 -369 0 -455 19 -148 71 -301 150 -446
29 -54 119 -161 188 -224 106 -97 267 -195 468 -285 17 -8 56 -25 87 -39 31
-15 62 -26 68 -26 6 0 21 -6 33 -14 12 -8 38 -17 57 -21 19 -4 44 -13 55 -20
11 -7 36 -15 55 -19 19 -4 51 -13 70 -21 71 -27 207 -69 330 -100 108 -28 176
-46 230 -60 127 -34 178 -47 230 -60 117 -30 302 -98 370 -136 8 -5 24 -13 35
-18 40 -17 171 -109 205 -144 19 -20 51 -62 70 -93 35 -58 35 -59 34 -174 0
-127 -17 -183 -78 -266 -53 -70 -202 -173 -255 -174 -9 -1 -34 -8 -56 -16 -51
-19 -262 -44 -380 -44 -105 0 -251 22 -294 44 -16 9 -36 16 -43 16 -23 0 -132
77 -187 132 -57 57 -105 123 -116 160 -4 12 -13 32 -20 43 -15 25 -43 153 -55
253 -4 40 -11 76 -14 79 -10 10 -1300 3 -1309 -6 -15 -15 -1 -237 22 -356 66
-347 208 -609 438 -808 43 -37 85 -73 93 -80 26 -23 128 -87 162 -103 18 -8
56 -27 83 -42 44 -24 86 -41 235 -98 115 -43 331 -87 562 -115 314 -37 876
-16 1198 46 473 91 838 270 1072 526 94 102 90 98 130 159 95 149 147 281 188
485 26 125 29 455 6 545 -7 30 -17 73 -20 95 -8 43 -51 177 -67 204 -5 9 -13
27 -19 41 -11 28 -15 35 -80 135 -97 152 -320 338 -525 438 -97 47 -164 77
-174 77 -6 0 -28 9 -48 20 -21 11 -47 20 -58 20 -11 0 -29 6 -40 14 -11 7 -33
16 -50 20 -16 3 -59 15 -95 26 -36 11 -103 29 -150 41 -47 11 -114 29 -150 39
-36 10 -87 23 -115 28 -99 21 -171 40 -218 56 -26 9 -57 16 -69 16 -21 0 -234
67 -320 101 -177 70 -250 105 -333 158 -92 59 -172 141 -203 209 -22 49 -24
64 -19 137 23 320 365 508 802 441 50 -8 104 -21 120 -30 17 -9 35 -16 41 -16
17 0 116 -77 155 -121 66 -74 116 -215 128 -355 l6 -79 656 -3 c555 -2 658 0
668 12 15 18 -5 356 -24 402 -7 17 -16 51 -20 75 -4 24 -16 63 -26 86 -11 23
-19 47 -19 53 0 13 -86 176 -109 206 -9 12 -23 32 -31 45 -33 53 -210 219
-285 269 -179 117 -349 189 -585 245 -36 9 -83 20 -105 26 -22 5 -76 14 -120
20 -44 5 -127 16 -185 24 -127 18 -478 26 -650 15z"/>
<path d="M5953 5999 c-16 -16 -19 -4742 -3 -4783 l10 -26 1202 0 c1136 0 1214
1 1398 20 107 11 218 25 245 31 28 7 82 18 120 25 111 21 193 46 376 115 15 6
51 23 80 40 30 16 65 35 79 42 123 62 337 263 386 362 8 17 30 59 49 95 19 35
35 70 35 78 0 7 6 23 14 35 8 12 17 42 21 66 4 24 13 58 20 75 8 18 18 101 24
186 21 293 -15 517 -111 694 -101 188 -257 336 -458 435 -36 18 -72 36 -81 41
-62 32 -246 93 -336 110 -40 8 -69 20 -83 35 l-22 23 38 11 c22 6 44 11 51 11
7 0 27 6 45 14 18 8 69 28 113 45 127 48 158 64 320 170 58 38 184 167 230
236 76 114 105 188 141 350 58 268 9 583 -128 815 -35 61 -123 163 -189 222
-74 66 -190 145 -224 154 -13 3 -29 12 -36 20 -6 8 -17 14 -23 14 -6 0 -28 9
-49 20 -20 11 -43 20 -50 20 -7 0 -30 9 -51 19 -21 11 -52 23 -69 26 -18 3
-48 12 -67 20 -76 29 -304 76 -465 95 -49 6 -142 18 -205 27 -99 14 -273 17
-1225 20 -889 4 -1112 2 -1122 -8z m2117 -887 c19 -6 62 -18 95 -26 33 -9 69
-19 80 -25 161 -74 236 -139 288 -247 32 -68 32 -70 32 -219 -1 -137 -3 -155
-25 -205 -51 -115 -122 -187 -240 -241 -151 -71 -280 -87 -727 -96 l-323 -6
-10 27 c-11 30 -15 1012 -4 1041 6 16 38 17 403 12 238 -3 410 -9 431 -15z
m-170 -1892 c350 -31 498 -80 624 -205 77 -75 108 -138 132 -267 17 -94 17
-101 -1 -200 -29 -161 -87 -261 -191 -329 -77 -50 -93 -58 -170 -83 -175 -55
-236 -61 -664 -61 l-395 0 -3 558 c-1 373 1 564 8 578 10 18 23 19 288 19 152
-1 320 -5 372 -10z"/>
<path d="M10732 5998 c-19 -19 -17 -4781 2 -4797 9 -8 191 -10 662 -9 l649 3
5 960 c3 528 9 966 13 973 6 9 174 12 781 12 736 0 774 -1 789 -18 16 -17 17
-99 17 -969 0 -858 2 -951 16 -957 9 -3 308 -6 665 -6 l649 0 0 2404 0 2404
-22 6 c-13 3 -307 6 -654 6 -477 0 -633 -3 -642 -12 -9 -9 -12 -227 -12 -920
0 -887 0 -908 -19 -918 -30 -15 -1553 -14 -1569 2 -9 9 -12 227 -12 918 0 691
-3 909 -12 918 -17 17 -1289 17 -1306 0z"/>
</g>
</svg>
