<?xml version="1.0" standalone="no"?>
<!DOCTYPE svg PUBLIC "-//W3C//DTD SVG 20010904//EN"
 "http://www.w3.org/TR/2001/REC-SVG-20010904/DTD/svg10.dtd">
<svg version="1.0" xmlns="http://www.w3.org/2000/svg"
 width="1368.000000pt" height="1000.000000pt" viewBox="0 0 1368.000000 1000.000000"
 preserveAspectRatio="xMidYMid meet">

<g transform="translate(0.000000,1000.000000) scale(0.100000,-0.100000)"
fill="#000000" stroke="none">
<path d="M0 5000 l0 -5000 6840 0 6840 0 0 5000 0 5000 -6840 0 -6840 0 0
-5000z m6609 4294 c17 -14 31 -32 31 -39 0 -7 9 -24 20 -38 19 -24 28 -58 61
-232 31 -166 44 -221 75 -327 18 -65 44 -135 58 -155 13 -21 32 -63 41 -93 27
-86 126 -225 215 -303 119 -104 115 -102 179 -89 32 7 72 12 91 12 18 0 72 7
119 14 236 40 333 46 379 22 15 -8 46 -38 70 -67 74 -91 49 -147 -73 -170 -33
-7 -81 -20 -107 -30 -26 -11 -59 -19 -73 -19 -24 0 -184 -45 -258 -73 -45 -16
-144 -83 -197 -133 -64 -60 -101 -119 -151 -240 -46 -112 -52 -133 -68 -224
-41 -240 -88 -452 -110 -490 -4 -8 -16 -47 -25 -85 -29 -121 -67 -225 -85
-234 -24 -13 -48 4 -61 44 -9 27 -8 57 4 137 16 104 22 132 56 268 53 211 72
368 46 389 -12 10 -15 6 -21 -18 -3 -17 -18 -47 -32 -68 -15 -21 -39 -65 -54
-98 -16 -33 -35 -71 -43 -85 -8 -14 -22 -50 -30 -80 -29 -106 -104 -162 -142
-105 -38 58 -30 102 52 293 8 18 14 38 14 45 0 7 20 56 44 110 46 101 87 243
106 361 18 115 14 301 -10 428 -11 62 -30 163 -41 223 -11 61 -27 146 -35 190
-11 57 -33 117 -78 210 -89 184 -92 192 -120 370 -32 197 -33 268 -6 313 11
17 24 32 28 32 5 0 23 14 40 30 39 37 52 37 91 4z m441 -509 c48 -14 188 -116
234 -170 26 -30 59 -80 74 -112 52 -112 27 -280 -51 -335 -35 -25 -105 -40
-129 -27 -9 5 -65 67 -123 137 -81 96 -119 152 -155 227 -76 155 -84 223 -31
268 22 18 38 22 91 21 36 -1 76 -4 90 -9z m915 -64 c17 -6 60 -20 98 -32 47
-14 86 -36 130 -72 102 -83 147 -130 147 -152 0 -12 5 -26 11 -32 51 -51 -164
-125 -361 -125 -126 0 -244 26 -370 80 -65 29 -86 42 -88 59 -4 31 28 46 65
32 35 -14 261 -24 300 -14 24 7 18 10 -52 25 -93 21 -181 55 -272 106 -56 31
-64 39 -61 62 3 25 9 28 113 54 94 23 125 27 210 23 55 -2 114 -9 130 -14z
m-2973 -428 c87 -84 184 -204 246 -303 25 -41 68 -103 94 -138 26 -35 48 -68
48 -73 0 -6 11 -35 25 -66 41 -89 55 -166 54 -308 0 -139 -15 -232 -41 -248
-30 -19 -45 -1 -58 70 -16 94 -46 178 -86 245 -36 59 -116 138 -166 164 -29
15 -29 15 -22 -13 4 -15 16 -46 26 -67 69 -137 72 -309 10 -486 -37 -103 -46
-102 -146 2 -68 71 -91 104 -144 209 -92 183 -106 245 -106 459 0 157 3 185
27 272 26 100 97 285 123 326 8 12 22 22 30 22 9 0 48 -30 86 -67z m1488 -697
c0 -121 -78 -396 -153 -539 -70 -133 -250 -332 -458 -509 -324 -274 -405 -345
-502 -438 -60 -58 -114 -116 -121 -130 -7 -14 -16 -51 -19 -83 -5 -56 -4 -60
30 -98 20 -22 56 -52 80 -65 40 -24 53 -26 175 -27 119 -2 146 1 258 30 143
36 199 58 261 102 119 86 364 240 448 283 136 69 181 62 181 -29 0 -43 -3 -48
-108 -156 -265 -272 -341 -344 -438 -409 -135 -92 -192 -104 -413 -89 -200 14
-272 36 -526 162 -151 74 -208 95 -355 130 -102 24 -172 27 -373 16 -225 -13
-327 22 -443 150 -37 42 -90 93 -118 115 -71 55 -133 139 -199 272 -61 120
-65 137 -42 156 20 17 45 5 82 -38 18 -20 49 -57 71 -82 21 -25 43 -52 48 -61
17 -28 186 -179 202 -179 8 0 39 -7 68 -17 69 -21 97 -10 186 78 l68 66 2 64
c4 134 -15 222 -73 344 -38 80 -157 267 -180 283 -10 7 -32 32 -48 55 -16 23
-52 67 -81 97 -128 135 -220 271 -220 325 0 26 2 27 18 14 9 -8 33 -22 54 -31
49 -22 367 -327 478 -458 49 -58 112 -130 140 -160 29 -30 66 -73 83 -94 41
-52 129 -107 206 -131 56 -17 70 -17 144 -6 45 7 102 19 127 26 25 8 72 19
104 24 78 14 266 105 337 163 30 25 75 59 100 77 24 18 219 205 432 417 360
358 433 422 480 424 4 0 7 -20 7 -44z m2781 -643 c14 -16 21 -76 34 -288 6
-84 4 -131 -9 -198 -17 -89 -66 -224 -104 -287 -27 -44 -177 -178 -235 -209
-88 -48 -103 1 -26 87 27 32 66 91 85 132 19 41 48 101 64 132 26 50 30 73 35
165 5 91 3 118 -13 168 -19 57 -20 59 -27 30 -18 -77 -38 -142 -59 -184 -76
-152 -174 -296 -273 -399 -116 -122 -144 -111 -164 66 -10 82 -9 105 1 117 7
9 19 14 25 11 8 -3 46 63 101 172 104 208 147 260 297 359 115 76 227 142 243
142 6 1 18 -6 25 -16z m-5247 -158 c18 -9 63 -41 100 -71 51 -43 75 -72 101
-124 49 -97 54 -142 24 -196 -24 -44 -67 -74 -107 -74 -66 0 -183 93 -249 198
-64 101 -73 123 -73 182 0 54 15 76 58 86 15 3 32 7 37 9 26 9 80 4 109 -10z
m-488 -833 c93 -25 256 -88 265 -104 14 -22 -6 -42 -77 -74 -229 -106 -457
-146 -689 -122 l-70 8 40 -35 c135 -117 338 -155 530 -100 49 14 121 41 162
60 74 34 97 36 107 9 9 -23 -6 -45 -79 -112 -80 -75 -144 -114 -250 -149 -71
-24 -94 -27 -215 -26 -118 0 -150 4 -251 30 -64 17 -159 48 -210 68 -106 43
-305 140 -313 154 -9 13 190 200 269 253 120 79 223 124 355 154 86 20 326 12
426 -14z m3768 -194 c21 -34 -39 -113 -215 -288 -48 -47 -104 -107 -125 -135
-21 -27 -68 -84 -104 -125 -106 -121 -126 -149 -191 -270 -75 -142 -128 -295
-209 -600 -12 -47 -30 -111 -39 -142 -10 -31 -14 -63 -10 -70 4 -7 3 -42 -2
-78 -5 -36 -13 -132 -18 -215 -6 -82 -22 -213 -36 -290 -14 -77 -32 -194 -40
-260 -7 -66 -18 -131 -23 -145 -5 -14 -33 -53 -61 -87 -82 -98 -151 -114 -235
-55 -97 68 -110 175 -38 322 23 47 57 104 77 128 47 58 70 143 94 342 40 327
37 456 -12 626 -18 63 -84 177 -132 226 -63 66 -158 126 -246 156 -142 49
-357 112 -383 112 -52 0 -156 89 -156 133 0 100 51 140 207 163 111 17 167 14
407 -17 116 -15 280 -13 364 5 88 18 138 42 223 106 35 27 102 77 149 111 100
73 190 157 231 217 26 36 59 56 59 35 0 -14 -55 -101 -95 -148 -35 -41 -43
-60 -48 -107 -15 -128 16 -116 227 89 185 180 317 286 349 281 11 -2 25 -11
31 -20z m-1407 -1199 c60 -37 127 -211 153 -395 5 -38 14 -100 20 -139 13 -82
5 -170 -22 -243 -23 -61 -48 -81 -106 -84 -38 -1 -47 4 -96 53 -41 41 -62 74
-89 139 -49 115 -58 164 -59 305 -1 183 23 273 95 349 40 42 57 44 104 15z
m-1620 -1069 c29 -12 51 -26 48 -30 -2 -4 -26 -13 -52 -20 -199 -51 -382 -155
-482 -273 -72 -85 -131 -233 -105 -260 4 -4 32 15 63 42 182 155 271 206 444
253 90 24 134 30 237 32 69 1 132 6 139 10 19 12 41 -1 41 -24 0 -32 -94 -165
-183 -257 -128 -133 -263 -212 -435 -255 -112 -28 -325 -30 -453 -5 -118 23
-280 73 -290 89 -13 20 -11 28 6 22 31 -12 115 102 201 276 80 163 144 232
311 334 140 86 390 119 510 66z m5509 -245 c102 -60 154 -222 154 -484 l0 -93
138 7 c75 4 140 9 144 11 3 2 14 26 22 52 12 34 17 97 20 218 2 93 8 181 14
195 14 35 52 64 118 89 125 46 203 15 268 -109 51 -97 59 -149 46 -306 -6 -71
-15 -159 -20 -195 -18 -135 -31 -228 -45 -315 -8 -49 -17 -196 -20 -325 -7
-255 -16 -303 -62 -340 -67 -53 -261 -3 -302 77 -51 100 -82 264 -80 413 l3
114 -127 2 c-70 1 -128 -1 -128 -5 -1 -3 -3 -40 -4 -81 -3 -84 -45 -297 -74
-380 -53 -152 -61 -160 -179 -171 -108 -10 -127 -5 -182 44 -62 57 -81 109
-91 251 -8 105 -7 136 11 231 61 326 61 330 54 614 -7 285 -1 339 47 433 22
42 43 56 114 74 62 16 108 10 161 -21z m-2048 -19 c122 -33 149 -67 168 -207
19 -143 17 -216 -5 -265 -32 -70 -117 -114 -221 -114 -82 0 -117 26 -150 111
-14 37 -31 74 -39 83 -20 24 -71 20 -114 -10 -67 -45 -68 -97 -4 -141 18 -13
51 -41 73 -63 23 -22 64 -50 90 -61 80 -35 208 -125 262 -184 58 -63 82 -127
90 -241 5 -73 -16 -192 -43 -243 -23 -45 -127 -136 -195 -173 -131 -69 -171
-81 -257 -74 -43 4 -139 10 -213 14 -103 5 -143 11 -169 26 -46 24 -139 113
-158 149 -23 46 -28 154 -9 219 31 107 101 125 208 54 85 -56 156 -77 246 -70
43 3 90 10 105 16 25 10 28 15 23 41 -8 39 -35 59 -195 144 -75 40 -160 93
-189 119 -89 78 -130 195 -139 400 -5 122 -4 135 16 177 12 25 40 66 62 91 51
58 200 158 270 181 128 43 369 53 487 21z m1063 -5 c166 -34 343 -144 363
-226 4 -16 17 -50 29 -75 16 -34 22 -69 25 -144 5 -120 -12 -172 -75 -234
l-44 -42 60 -55 c69 -65 105 -141 122 -263 20 -146 -4 -257 -84 -374 -63 -94
-96 -111 -301 -158 -123 -29 -143 -31 -197 -21 -34 6 -102 8 -153 4 -70 -4
-105 -2 -149 11 -42 12 -62 14 -77 6 -25 -13 -84 9 -161 61 -78 53 -85 72 -71
217 16 159 24 332 28 547 1 99 6 196 9 215 4 19 12 134 19 254 12 208 14 220
35 238 30 24 113 48 170 49 25 0 69 5 96 9 74 13 247 3 356 -19z"/>
<path d="M2850 5663 c0 -5 13 -17 28 -27 l27 -19 -24 26 c-26 28 -31 32 -31
20z"/>
<path d="M9567 3178 l-48 -21 6 -86 c4 -47 14 -156 22 -241 9 -85 17 -180 18
-210 3 -71 -31 -349 -51 -420 -18 -63 -30 -295 -20 -365 6 -36 16 -55 46 -84
l39 -37 72 10 71 11 20 50 c29 73 67 262 78 388 5 60 15 116 22 124 8 10 23
13 45 10 22 -4 49 1 79 14 64 29 262 42 289 19 17 -14 20 -56 5 -65 -6 -3 -10
-49 -10 -103 0 -121 19 -232 67 -385 13 -41 160 -76 191 -45 8 8 12 66 13 193
0 99 4 225 9 280 19 221 32 341 40 370 5 17 17 120 26 230 l18 200 -33 72
c-20 42 -42 76 -57 83 -54 30 -176 2 -193 -43 -4 -12 -11 -100 -14 -195 -6
-143 -10 -182 -27 -219 -11 -26 -18 -54 -15 -64 11 -33 -34 -51 -112 -44 -37
3 -120 2 -183 -3 -63 -5 -120 -7 -127 -5 -20 8 -25 35 -28 178 -7 252 -23 330
-80 390 -28 31 -38 35 -81 35 -27 -1 -70 -10 -97 -22z"/>
<path d="M7410 3135 c-114 -15 -157 -30 -231 -77 -76 -49 -127 -95 -157 -142
-24 -39 -25 -44 -19 -156 6 -111 27 -204 58 -261 24 -44 79 -83 229 -162 196
-102 240 -151 240 -265 0 -38 -5 -49 -37 -78 -49 -45 -95 -57 -228 -58 -125
-1 -180 15 -283 84 l-57 39 -8 -32 c-4 -18 -5 -56 -1 -84 5 -45 11 -58 48 -93
77 -74 79 -74 231 -83 280 -16 269 -17 373 33 119 56 191 128 210 209 29 124
5 238 -63 303 -53 52 -162 123 -226 148 -63 25 -233 170 -260 222 -37 72 -20
148 49 210 51 46 85 64 139 73 87 14 136 -21 193 -138 l35 -72 44 3 c102 7
134 59 113 185 -7 37 -12 82 -12 100 0 49 -19 67 -85 83 -91 21 -190 24 -295
9z"/>
<path d="M8330 3160 c-110 -10 -131 -18 -125 -44 12 -50 9 -413 -7 -823 -9
-243 -19 -446 -21 -450 -7 -10 1 -23 25 -41 12 -10 22 -10 35 -3 21 11 105 -2
138 -21 12 -7 96 -15 205 -19 173 -6 193 -5 305 18 66 13 135 34 153 45 36 22
81 83 106 142 22 53 22 217 -1 303 -19 69 -51 110 -141 181 -35 27 -42 39 -42
67 0 19 6 39 13 44 56 45 101 89 113 112 24 48 18 171 -12 248 -33 83 -77 129
-167 175 -136 67 -327 89 -577 66z m413 -189 c68 -24 114 -56 135 -96 20 -39
19 -138 -3 -193 -26 -65 -62 -81 -205 -93 -132 -12 -164 -8 -179 19 -12 22 4
266 21 318 10 31 20 41 48 51 52 18 120 15 183 -6z m32 -633 c47 -29 97 -84
121 -130 20 -38 13 -112 -16 -167 -24 -49 -98 -116 -141 -129 -77 -24 -166
-25 -233 -2 -35 11 -67 27 -69 34 -11 27 13 291 30 341 30 86 32 88 158 83 98
-3 114 -7 150 -30z"/>
<path d="M8593 2874 c-21 -5 -22 -9 -16 -92 3 -48 8 -90 12 -93 3 -4 46 -3 95
1 105 8 119 19 114 90 -3 43 -5 46 -51 69 -48 23 -112 34 -154 25z"/>
<path d="M8530 2131 l0 -129 27 -7 c14 -3 56 -3 92 1 58 6 70 11 109 48 77 73
66 148 -29 196 -29 15 -58 20 -119 20 l-80 0 0 -129z"/>
</g>
</svg>
